<?xml version="1.0" encoding="UTF-8"?>
<svg id="Layer_1" xmlns="http://www.w3.org/2000/svg" version="1.1" viewBox="0 0 1000 1000">
  <!-- Generator: Adobe Illustrator 30.3.0, SVG Export Plug-In . SVG Version: 2.1.3 Build 182)  -->
  <defs>
    <style>
      .st0 {
        fill: #fff;
      }

      .st1 {
        fill: #ff8b28;
      }

      .st2 {
        fill: #0a0a0a;
      }
    </style>
  </defs>
  <g>
    <g>
      <path class="st0" d="M2644.15,576.81l-6.52-34.39c-.79-4.31-1.94-7.7-3.4-10.06-1.43-2.31-3.65-4.08-6.58-5.24-2.99-1.18-7.21-1.78-12.56-1.78h-40.1v51.47h-12.48v-122.9h52.93c11.32,0,20.75,2.79,28,8.29,7.31,5.54,11.01,13.42,11.01,23.42,0,8.58-2.72,15.82-8.07,21.53-5.01,5.34-11.51,8.53-19.34,9.49,6.26.64,11.17,2.48,14.6,5.48,3.74,3.26,6.35,8.79,7.76,16.42l7.62,38.26h-12.86ZM2613.86,513.9c8.73,0,15.61-2.37,20.46-7.05,4.84-4.67,7.3-10.76,7.3-18.09s-2.45-12.96-7.27-17.11c-4.85-4.17-11.39-6.29-19.44-6.29h-39.92v48.55h38.88Z"/>
      <path class="st0" d="M2673.78,576.81v-90.9h11.96v90.9h-11.96ZM2679.76,471.26c-2.35,0-4.4-.85-6.07-2.52-1.67-1.67-2.52-3.72-2.52-6.07,0-2.47.85-4.55,2.53-6.16,1.67-1.61,3.71-2.43,6.06-2.43,2.47,0,4.54.82,6.16,2.43,1.61,1.61,2.43,3.69,2.43,6.16s-.85,4.4-2.52,6.07c-1.67,1.67-3.71,2.52-6.07,2.52Z"/>
      <polygon class="st0" points="2739 576.81 2701.83 485.9 2714.59 485.9 2730.73 526.27 2745.31 562.45 2759.72 526.27 2775.86 485.9 2788.79 485.9 2751.62 576.81 2739 576.81"/>
      <path class="st0" d="M2800.71,576.81v-90.9h11.96v90.9h-11.96ZM2806.69,471.26c-2.35,0-4.4-.85-6.07-2.52-1.67-1.67-2.52-3.71-2.52-6.07,0-2.47.85-4.55,2.53-6.16,1.67-1.61,3.71-2.43,6.06-2.43,2.47,0,4.54.82,6.16,2.43,1.61,1.61,2.43,3.69,2.43,6.16s-.85,4.4-2.52,6.07c-1.67,1.67-3.71,2.52-6.07,2.52Z"/>
      <path class="st0" d="M2899.64,576.81v-57.1c0-7.69-2.25-13.89-6.7-18.45-4.44-4.55-10.47-6.86-17.92-6.86-8.35,0-15.19,3.23-20.32,9.6-5.16,6.41-7.78,14.97-7.78,25.45v47.36h-12.14v-90.9h11.6l.5,24.8c1.49-7.95,5.05-14.51,10.61-19.52,5.94-5.35,13.24-8.06,21.7-8.06,9.63,0,17.55,3.1,23.55,9.22,6,6.11,9.04,14.21,9.04,24.06v60.41h-12.14Z"/>
      <path class="st0" d="M2933.72,576.81v-90.9h11.96v90.9h-11.96ZM2939.7,471.26c-2.35,0-4.4-.85-6.07-2.52-1.67-1.67-2.52-3.71-2.52-6.07,0-2.47.85-4.55,2.53-6.16,1.67-1.61,3.71-2.43,6.06-2.43,2.47,0,4.54.82,6.16,2.43,1.61,1.61,2.43,3.69,2.43,6.16s-.85,4.4-2.52,6.07c-1.67,1.67-3.71,2.52-6.07,2.52Z"/>
      <path class="st0" d="M3000.73,577.67c-6.18,0-11.08-.63-14.54-1.86-3.55-1.26-6.2-3.58-7.89-6.9-1.66-3.26-2.5-7.94-2.5-13.92v-59.57h-16v-9.53h16v-23.47h11.6l.35,23.47h25.4v9.53h-25.39v59.22c0,4.77,1.04,8.01,3.08,9.62,2.09,1.65,5.66,2.54,10.6,2.66,3.08,0,6.81-.17,11.07-.52l.64-.05v10.92l-.55.04c-3.01.23-7.01.35-11.87.35Z"/>
      <path class="st0" d="M3027.17,609.46c-1.61,0-3.32-.05-5.08-.14l-.56-.03v-11.29l.64.06c1.25.11,2.99.17,5.16.17,4.43,0,8.02-.49,10.67-1.44,2.61-.94,4.93-2.61,6.88-4.95,1.98-2.38,4.03-5.96,6.09-10.64l1.82-4.63-35.53-90.66h13.27l11.27,29.07,17.62,48.08c2.64-7.08,6.34-16.58,11.01-28.26l7.65-19.99,10.75-28.9h13.28l-36.49,91.4c-3.71,9.05-7.25,15.91-10.5,20.39-3.3,4.54-7.52,7.77-12.53,9.6-3.96,1.45-9.15,2.18-15.41,2.18Z"/>
    </g>
    <g>
      <path class="st1" d="M2462.69,614.51l-.07-.02c-1.95-.5-3.97-1.09-5.99-1.76-10.87-3.58-20.82-9.13-29.58-16.48-8.81,7.29-18.8,12.77-29.7,16.29-2,.64-4.03,1.21-6.01,1.71l-.31.08-.28-.26-.04-.06c-1.2-1.68-2.37-3.42-3.46-5.19-6.04-9.76-10.11-20.4-12.09-31.64-11.43-.06-22.61-2.28-33.24-6.59-1.96-.8-3.87-1.66-5.69-2.55l-.33-.16v-.37c.15-2.1.38-4.19.68-6.26,1.63-11.36,5.35-22.12,11.04-32.01-8.72-7.39-15.86-16.27-21.24-26.39-.98-1.87-1.9-3.76-2.73-5.62l-.05-.11v-.37l.17-.18c1.5-1.53,3.02-2.99,4.51-4.32,8.53-7.65,18.3-13.52,29.03-17.45-1.94-11.28-1.71-22.67.67-33.87.48-2.2.97-4.18,1.51-6.05l.04-.14.25-.27.23-.03c2.12-.21,4.21-.35,6.23-.42.99-.03,1.99-.05,2.98-.05,10.45,0,20.7,1.79,30.48,5.33,5.76-9.89,13.25-18.49,22.26-25.54,1.64-1.28,3.34-2.51,5.04-3.67l.15-.1h.36l.16.1c1.74,1.18,3.43,2.42,5.04,3.68,9.11,7.13,16.66,15.82,22.44,25.84,9.72-3.48,19.89-5.24,30.23-5.24,1.2,0,2.4.02,3.6.07,2.13.1,4.22.26,6.22.47l.2.02.26.25.05.17c.54,1.94,1.04,3.99,1.47,6.08,2.3,11.22,2.45,22.61.44,33.86,10.7,4,20.43,9.94,28.91,17.65,1.5,1.36,3,2.83,4.47,4.35l.17.17v.37l-.05.13c-.9,1.97-1.84,3.85-2.77,5.6-5.43,10.05-12.63,18.88-21.4,26.24,5.63,9.94,9.27,20.73,10.83,32.09.27,2.03.48,4.12.63,6.21l.02.28-.27.25-.09.05c-1.89.9-3.82,1.75-5.72,2.5-10.61,4.23-21.79,6.37-33.23,6.37,0,0-.02,0-.02,0-2.06,11.23-6.21,21.85-12.31,31.56-1.11,1.75-2.29,3.49-3.51,5.16l-.18.24h-.38ZM2432.3,591.54c8.25,6.77,17.61,11.8,27.82,14.99,5.81-8.89,9.82-18.76,11.89-29.27-8.35-.66-16.55-2.51-24.41-5.49-4.13,7.28-9.28,13.93-15.31,19.78ZM2382.21,576.94c1.98,10.49,5.91,20.36,11.7,29.35,10.24-3.12,19.63-8.09,27.92-14.79-5.97-5.88-11.08-12.56-15.18-19.88-7.86,2.92-16.07,4.71-24.44,5.32ZM2410.17,563.24c.82,1.76,1.71,3.48,2.65,5.12,3.82,6.81,8.61,13.03,14.24,18.5,5.65-5.4,10.49-11.59,14.38-18.41.93-1.61,1.84-3.32,2.69-5.1l.25-.52.53.24c1.77.82,3.56,1.56,5.32,2.22,7.34,2.77,15.01,4.46,22.82,5.04.86-7.77.59-15.63-.81-23.36-.33-1.86-.73-3.75-1.21-5.62l-.14-.56.56-.15c1.88-.51,3.73-1.09,5.52-1.72,7.4-2.59,14.37-6.22,20.71-10.79-4.32-6.5-9.57-12.34-15.61-17.38-1.47-1.23-3-2.43-4.56-3.55l-.47-.34.33-.48c1.08-1.55,2.13-3.18,3.13-4.86,4.01-6.73,7.02-13.99,8.95-21.58-7.48-2.19-15.21-3.29-23-3.29h-.38c-1.9.01-3.84.09-5.76.23l-.58.04-.05-.58c-.17-1.85-.41-3.72-.74-5.72-1.28-7.7-3.65-15.16-7.03-22.18-7.15,3.16-13.79,7.31-19.74,12.35-1.56,1.32-2.96,2.59-4.27,3.88l-.42.41-.42-.41c-1.45-1.44-2.84-2.72-4.25-3.91-6.02-5.17-12.73-9.41-19.95-12.62-3.43,7.03-5.83,14.51-7.15,22.24-.32,1.86-.57,3.79-.76,5.72l-.06.58-.58-.05c-1.92-.16-3.86-.24-5.76-.25h-.75c-7.58,0-15.11,1.05-22.4,3.14,1.88,7.58,4.84,14.86,8.81,21.65.91,1.57,1.92,3.16,3.09,4.87l.33.48-.48.34c-1.52,1.07-3.06,2.25-4.58,3.51-6.06,4.97-11.35,10.78-15.74,17.27,6.32,4.62,13.27,8.3,20.66,10.94,1.78.64,3.62,1.23,5.49,1.75l.56.16-.15.56c-.5,1.92-.92,3.82-1.25,5.62-1.45,7.73-1.78,15.59-.97,23.37,7.83-.53,15.51-2.18,22.85-4.89,1.72-.63,3.47-1.34,5.35-2.18l.53-.24.25.53ZM2479.1,545.55c1.5,8.26,1.83,16.67.98,25,10.66-.12,21.05-2.27,30.93-6.38-1.27-10.58-4.52-20.71-9.67-30.08-6.85,4.86-14.32,8.71-22.23,11.46ZM2343.3,563.61c9.83,4.19,20.22,6.4,30.89,6.58-.81-8.34-.42-16.74,1.14-24.99-7.9-2.79-15.35-6.7-22.16-11.61-5.21,9.3-8.53,19.39-9.88,30.02ZM2486.42,505.25c6.46,5.37,12.1,11.6,16.79,18.54,8.1-6.95,14.7-15.28,19.62-24.76-7.8-7.33-16.79-12.99-26.73-16.84-2.12,8.11-5.37,15.86-9.67,23.05ZM2331.93,498.38c4.86,9.53,11.4,17.9,19.45,24.9,4.73-6.9,10.41-13.09,16.92-18.43-4.26-7.24-7.47-15.01-9.53-23.14-9.97,3.79-19,9.39-26.84,16.66ZM2466.48,469.66c8.26,0,16.48,1.15,24.42,3.43,1.76-10.53,1.47-21.15-.86-31.59-1.55-.09-3.13-.13-4.68-.13-9.19,0-18.25,1.51-26.93,4.5,3.59,7.54,6.09,15.54,7.43,23.8.21,0,.41,0,.62,0ZM2365.1,441.08c-2.4,10.42-2.76,21.04-1.07,31.57,7.76-2.17,15.79-3.27,23.87-3.27.31,0,.62,0,.92,0,1.37-8.26,3.91-16.27,7.55-23.83-8.72-3.04-17.85-4.58-27.15-4.58-1.37,0-2.75.03-4.12.1ZM2406.22,441.98c7.72,3.49,14.88,8.06,21.31,13.61,6.36-5.43,13.45-9.9,21.07-13.32-5.48-9.27-12.64-17.28-21.28-23.81-8.54,6.45-15.63,14.36-21.1,23.52Z"/>
      <path class="st1" d="M2426.82,560.55c-1.58-1.13-3.17-2.36-4.85-3.75-2.61-2.17-5.08-4.48-7.36-6.87-3.03.31-6.1.47-9.12.47h-.96c-2.1-.02-4.16-.12-6.12-.28l-.42-.03-.1-.41c-.52-2.06-.96-4.07-1.3-5.99-.6-3.29-1.02-6.65-1.25-10-2.79-1.88-5.48-3.94-8-6.11-1.49-1.26-2.96-2.61-4.51-4.14l-.3-.29.18-.38c.85-1.78,1.78-3.56,2.84-5.42,1.64-2.9,3.48-5.75,5.47-8.46-.93-3.24-1.67-6.55-2.22-9.84-.34-1.98-.61-4.02-.8-6.06l-.04-.42.38-.17c1.81-.82,3.66-1.58,5.66-2.34,3.17-1.18,6.45-2.19,9.76-3,1.35-3.01,2.91-6,4.62-8.87,1.03-1.74,2.14-3.48,3.31-5.16l.24-.34.4.11c2.01.56,3.98,1.19,5.84,1.87,3.17,1.13,6.27,2.44,9.22,3.9,2.98-1.45,6.09-2.74,9.27-3.85,1.92-.68,3.89-1.3,5.85-1.83l.41-.11.24.35c1.15,1.68,2.26,3.43,3.28,5.19,1.7,2.91,3.24,5.9,4.57,8.91,3.23.82,6.44,1.83,9.57,3,1.91.72,3.81,1.51,5.65,2.36l.38.18-.04.42c-.2,2.09-.48,4.14-.81,6.09-.56,3.3-1.31,6.59-2.23,9.77,1.98,2.73,3.83,5.62,5.49,8.6.98,1.72,1.93,3.55,2.81,5.44l.18.38-.3.29c-1.47,1.44-3.01,2.82-4.55,4.12-2.58,2.18-5.29,4.21-8.05,6.04-.24,3.34-.68,6.7-1.31,10-.36,1.93-.81,3.94-1.34,5.96l-.11.41-.42.03c-2,.15-4.06.23-6.12.24h-.48c-3.22,0-6.45-.18-9.59-.54-2.29,2.38-4.78,4.67-7.42,6.83-1.57,1.3-3.2,2.55-4.86,3.71l-.34.24-.34-.24ZM2416.07,542.8c.33.12.65.23.99.34.38.15.71.28,1.05.4l.14.05.1.11c1.01,1.11,2.11,2.25,3.28,3.38.26.27.5.51.75.72,1.58,1.51,3.18,2.93,4.81,4.24,1.64-1.31,3.27-2.72,4.84-4.2l.75-.73c1.08-1.03,2.16-2.12,3.3-3.36l.09-.1c.24-.25.48-.52.71-.79l.21-.25.32.05c.36.06.72.11,1.09.15h.04l.1.02c1.55.21,3.16.38,4.77.51l.97.07c1.7.11,3.43.16,5.15.16.42,0,.84,0,1.25,0,.42-2.07.76-4.19,1.01-6.33.04-.31.08-.62.11-.93v-.13c.18-1.56.31-3.14.38-4.71.03-.45.04-.79.04-1.14v-.33s.3-.23.3-.23c.3-.17.61-.36.9-.55l.05-.04.07-.03c1.34-.84,2.68-1.74,3.99-2.7.27-.18.52-.37.78-.57,1.68-1.22,3.36-2.56,5.01-3.99-1.04-1.91-2.16-3.78-3.33-5.56-.17-.28-.36-.54-.54-.81-.87-1.32-1.79-2.6-2.73-3.83l-.06-.08v-.02c-.28-.37-.51-.67-.75-.96l-.21-.25.49-1.5c.5-1.6.92-3.12,1.29-4.63.09-.31.16-.62.22-.93.48-2.01.9-4.1,1.24-6.23-1.9-.75-3.92-1.44-5.99-2.07-.31-.09-.61-.19-.92-.27-1.47-.44-3.01-.84-4.58-1.2l-1.6-.35-.57-1.41.5-.34-.55.23c-.6-1.46-1.26-2.9-1.95-4.31-.16-.32-.29-.59-.43-.85-.92-1.85-1.94-3.71-3.05-5.56-1.97.66-3.96,1.42-5.91,2.26-.3.12-.58.24-.87.38-1.42.61-2.84,1.29-4.26,2.02l-.06.03-.07.02c-.34.19-.71.37-1.07.57l-.28.15-.28-.16c-.35-.19-.7-.39-1.06-.56l-.07-.02-.06-.05c-1.43-.75-2.85-1.44-4.22-2.04-.3-.15-.59-.27-.88-.39-1.85-.81-3.83-1.58-5.9-2.3-1.1,1.79-2.13,3.64-3.08,5.52-.11.2-.21.39-.3.58l-.16.31c-.72,1.46-1.38,2.9-1.95,4.27v.05s-.05.06-.05.06c-.16.37-.32.75-.47,1.13l-.12.3-.32.06c-.39.07-.78.16-1.17.25l-.07.02h-.07c-1.48.33-3.01.72-4.56,1.16l-.94.27c-2.04.61-4.1,1.31-6.12,2.08.33,2.12.74,4.23,1.23,6.28.05.24.11.46.16.69l.07.27c.38,1.56.82,3.11,1.3,4.62l.46,1.47-.2.24c-.23.29-.46.58-.68.87l-.08.1c-.94,1.21-1.84,2.46-2.75,3.82-.21.29-.39.57-.58.86-1.17,1.75-2.28,3.59-3.33,5.47,1.58,1.39,3.25,2.74,4.96,4.02.26.19.52.39.79.58,1.33.97,2.66,1.88,3.97,2.72l.09.05c.3.2.62.4.93.58l.29.17v.34c0,.35.02.69.04,1.04v.06s0,.09,0,.09c.07,1.59.19,3.17.35,4.72.03.35.07.7.11,1.05.24,2.16.57,4.28.97,6.32.63.01,1.27.02,1.9.02,1.52,0,3.03-.04,4.5-.13.36-.02.71-.04,1.07-.07,1.49-.1,3.01-.25,4.67-.46l.14-.02.14.05Z"/>
    </g>
  </g>
  <g>
    <g>
      <path class="st2" d="M315.37,766.53l-6.4-33.74c-.78-4.23-1.9-7.55-3.34-9.87-1.4-2.27-3.58-4-6.46-5.14-2.93-1.16-7.08-1.75-12.33-1.75h-39.35v50.51h-12.25v-120.6h51.94c11.11,0,20.36,2.74,27.48,8.14,7.17,5.44,10.81,13.17,10.81,22.98,0,8.42-2.66,15.53-7.92,21.13-4.91,5.24-11.29,8.37-18.98,9.31,6.14.63,10.96,2.44,14.33,5.38,3.67,3.2,6.23,8.62,7.61,16.11l7.47,37.54h-12.62ZM285.65,704.8c8.56,0,15.32-2.33,20.07-6.92,4.75-4.59,7.16-10.56,7.16-17.75s-2.4-12.72-7.14-16.79c-4.76-4.1-11.18-6.17-19.07-6.17h-39.18v47.64h38.15Z"/>
      <path class="st2" d="M344.44,766.53v-89.2h11.74v89.2h-11.74ZM350.31,662.96c-2.31,0-4.31-.83-5.96-2.47-1.64-1.64-2.47-3.65-2.47-5.96,0-2.43.83-4.46,2.48-6.05,1.64-1.58,3.64-2.38,5.95-2.38,2.42,0,4.46.8,6.04,2.39,1.58,1.58,2.39,3.62,2.39,6.04s-.83,4.31-2.47,5.96c-1.64,1.64-3.64,2.47-5.96,2.47Z"/>
      <polygon class="st2" points="408.45 766.53 371.97 677.33 384.49 677.33 400.33 716.93 414.64 752.44 428.77 716.93 444.62 677.33 457.3 677.33 420.83 766.53 408.45 766.53"/>
      <path class="st2" d="M469,766.53v-89.2h11.74v89.2h-11.74ZM474.87,662.96c-2.31,0-4.31-.83-5.95-2.47-1.64-1.64-2.47-3.64-2.47-5.96,0-2.43.83-4.46,2.48-6.05,1.64-1.58,3.64-2.38,5.95-2.38,2.42,0,4.46.8,6.04,2.39,1.58,1.58,2.39,3.62,2.39,6.04s-.83,4.31-2.47,5.96c-1.64,1.64-3.64,2.47-5.96,2.47Z"/>
      <path class="st2" d="M566.08,766.53v-56.03c0-7.54-2.21-13.63-6.58-18.11-4.36-4.47-10.27-6.74-17.59-6.74-8.19,0-14.9,3.17-19.94,9.42-5.07,6.29-7.64,14.69-7.64,24.97v46.48h-11.91v-89.2h11.39l.49,24.33c1.46-7.8,4.96-14.24,10.41-19.15,5.83-5.25,12.99-7.91,21.29-7.91,9.45,0,17.22,3.04,23.11,9.05,5.88,6,8.87,13.94,8.87,23.61v59.27h-11.91Z"/>
      <path class="st2" d="M599.52,766.53v-89.2h11.74v89.2h-11.74ZM605.39,662.96c-2.31,0-4.31-.83-5.95-2.47-1.64-1.64-2.47-3.64-2.47-5.96,0-2.43.83-4.46,2.48-6.05,1.64-1.58,3.64-2.38,5.95-2.38,2.42,0,4.46.8,6.04,2.39,1.58,1.58,2.39,3.62,2.39,6.04s-.83,4.31-2.47,5.96c-1.64,1.64-3.64,2.47-5.96,2.47Z"/>
      <path class="st2" d="M665.28,767.38c-6.07,0-10.87-.61-14.27-1.82-3.48-1.24-6.09-3.52-7.74-6.77-1.63-3.2-2.45-7.79-2.45-13.66v-58.46h-15.7v-9.35h15.7v-23.03h11.39l.34,23.03h24.92v9.35h-24.91v58.12c0,4.68,1.02,7.86,3.02,9.44,2.05,1.62,5.55,2.5,10.41,2.61,3.02,0,6.68-.17,10.86-.51l.63-.05v10.72l-.54.04c-2.96.23-6.88.34-11.65.34Z"/>
      <path class="st2" d="M691.22,798.57c-1.58,0-3.26-.05-4.99-.14l-.55-.03v-11.08l.63.06c1.23.11,2.94.17,5.07.17,4.35,0,7.87-.48,10.47-1.42,2.56-.93,4.83-2.56,6.75-4.86,1.95-2.34,3.96-5.85,5.97-10.44l1.79-4.54-34.86-88.96h13.02l11.06,28.52,17.29,47.18c2.59-6.94,6.22-16.27,10.81-27.73l7.5-19.61,10.55-28.36h13.03l-35.81,89.69c-3.64,8.88-7.11,15.61-10.31,20-3.24,4.45-7.38,7.62-12.3,9.42-3.89,1.42-8.98,2.14-15.12,2.14Z"/>
    </g>
    <g>
      <path class="st1" d="M568.69,599.53l-.14-.04c-3.8-.97-7.73-2.12-11.66-3.42-21.17-6.97-40.53-17.76-57.59-32.08-17.15,14.2-36.6,24.86-57.82,31.71-3.9,1.24-7.84,2.36-11.7,3.32l-.61.15-.54-.51-.08-.11c-2.34-3.26-4.61-6.66-6.74-10.1-11.76-18.99-19.68-39.71-23.53-61.58-22.24-.12-44.01-4.44-64.71-12.83-3.81-1.56-7.54-3.23-11.08-4.96l-.65-.31v-.72c.3-4.09.74-8.16,1.32-12.19,3.18-22.11,10.41-43.07,21.5-62.31-16.97-14.39-30.88-31.67-41.36-51.37-1.91-3.64-3.7-7.32-5.31-10.94l-.1-.22v-.71l.33-.35c2.93-2.98,5.88-5.81,8.78-8.41,16.61-14.9,35.62-26.32,56.5-33.97-3.77-21.96-3.33-44.14,1.3-65.93.93-4.28,1.89-8.13,2.93-11.77l.08-.27.49-.52.44-.06c4.12-.42,8.2-.69,12.12-.82,1.93-.07,3.87-.1,5.8-.1,20.34,0,40.3,3.49,59.34,10.37,11.21-19.26,25.78-35.99,43.34-49.72,3.2-2.49,6.5-4.89,9.82-7.15l.29-.2h.71l.31.2c3.38,2.3,6.68,4.71,9.82,7.17,17.73,13.88,32.43,30.8,43.69,50.3,18.92-6.78,38.71-10.21,58.84-10.21,2.33,0,4.67.05,7,.14,4.15.19,8.22.5,12.1.91l.39.04.52.49.1.33c1.06,3.78,2.02,7.76,2.86,11.83,4.48,21.83,4.77,44.01.86,65.91,20.83,7.79,39.77,19.35,56.28,34.35,2.91,2.66,5.84,5.5,8.71,8.46l.32.33v.72l-.1.25c-1.75,3.84-3.57,7.5-5.4,10.89-10.56,19.57-24.58,36.75-41.67,51.08,10.96,19.35,18.05,40.36,21.08,62.48.53,3.95.94,8.01,1.22,12.09l.04.54-.53.5-.18.1c-3.69,1.76-7.44,3.4-11.14,4.87-20.66,8.23-42.43,12.41-64.68,12.41,0,0-.04,0-.04,0-4.02,21.86-12.08,42.53-23.97,61.44-2.16,3.41-4.46,6.79-6.83,10.04l-.34.47h-.75ZM509.52,554.82c16.06,13.17,34.27,22.98,54.16,29.17,11.31-17.31,19.12-36.52,23.15-56.98-16.25-1.29-32.22-4.89-47.51-10.69-8.05,14.17-18.06,27.11-29.8,38.5ZM412,526.41c3.85,20.42,11.51,39.63,22.78,57.14,19.93-6.07,38.2-15.76,54.35-28.8-11.63-11.44-21.56-24.45-29.55-38.69-15.29,5.68-31.29,9.17-47.59,10.35ZM466.44,499.72c1.6,3.43,3.34,6.78,5.16,9.97,7.44,13.26,16.77,25.37,27.73,36.02,11-10.52,20.41-22.57,27.99-35.83,1.81-3.13,3.57-6.47,5.24-9.93l.49-1.02,1.03.47c3.45,1.59,6.94,3.04,10.36,4.32,14.29,5.39,29.23,8.69,44.42,9.81,1.67-15.13,1.15-30.43-1.57-45.48-.63-3.62-1.43-7.3-2.36-10.95l-.28-1.1,1.09-.3c3.65-.99,7.27-2.12,10.74-3.35,14.41-5.04,27.97-12.1,40.32-21-8.41-12.66-18.63-24.03-30.38-33.82-2.86-2.4-5.85-4.72-8.88-6.9l-.92-.66.65-.93c2.1-3.01,4.16-6.2,6.1-9.47,7.81-13.1,13.67-27.23,17.42-42.01-14.56-4.25-29.62-6.41-44.77-6.41h-.73c-3.71.02-7.48.17-11.21.44l-1.13.08-.1-1.12c-.33-3.59-.81-7.24-1.45-11.13-2.5-15-7.11-29.52-13.7-43.18-13.93,6.14-26.85,14.23-38.42,24.04-3.04,2.57-5.76,5.05-8.31,7.56l-.81.8-.81-.8c-2.83-2.81-5.53-5.3-8.27-7.61-11.72-10.07-24.78-18.32-38.83-24.56-6.68,13.68-11.36,28.24-13.91,43.3-.62,3.63-1.12,7.37-1.48,11.13l-.11,1.13-1.13-.09c-3.73-.31-7.51-.48-11.22-.5h-1.47c-14.75,0-29.42,2.05-43.61,6.1,3.65,14.76,9.42,28.93,17.16,42.14,1.77,3.06,3.74,6.16,6.01,9.49l.64.94-.93.65c-2.96,2.08-5.96,4.38-8.91,6.84-11.8,9.68-22.1,20.98-30.64,33.62,12.31,9,25.83,16.16,40.21,21.29,3.46,1.25,7.05,2.39,10.69,3.41l1.09.3-.29,1.1c-.98,3.74-1.8,7.43-2.43,10.95-2.82,15.05-3.46,30.34-1.89,45.49,15.24-1.03,30.2-4.24,44.49-9.53,3.35-1.23,6.75-2.62,10.41-4.25l1.03-.46.48,1.02ZM600.63,465.3c2.93,16.08,3.57,32.44,1.91,48.68,20.74-.23,40.99-4.41,60.2-12.43-2.47-20.6-8.8-40.32-18.83-58.55-13.33,9.46-27.88,16.96-43.28,22.3ZM336.27,500.45c19.14,8.15,39.37,12.46,60.14,12.81-1.57-16.24-.82-32.6,2.23-48.66-15.38-5.44-29.88-13.04-43.14-22.61-10.14,18.1-16.6,37.75-19.23,58.45ZM614.87,386.84c12.57,10.45,23.55,22.58,32.68,36.1,15.77-13.54,28.61-29.74,38.19-48.2-15.18-14.26-32.68-25.28-52.04-32.78-4.13,15.8-10.46,30.88-18.83,44.88ZM314.12,373.47c9.46,18.55,22.19,34.85,37.87,48.47,9.2-13.43,20.27-25.49,32.93-35.87-8.3-14.09-14.54-29.23-18.55-45.04-19.41,7.38-36.98,18.29-52.25,32.44ZM576.07,317.55c16.09,0,32.08,2.24,47.54,6.67,3.42-20.5,2.86-41.17-1.68-61.49-3.02-.17-6.08-.26-9.11-.26-17.89,0-35.52,2.94-52.42,8.75,6.99,14.68,11.85,30.25,14.47,46.32.4,0,.8,0,1.2,0ZM378.69,261.91c-4.67,20.29-5.37,40.96-2.09,61.47,15.1-4.22,30.73-6.36,46.47-6.36.6,0,1.2,0,1.8,0,2.67-16.08,7.61-31.68,14.69-46.4-16.98-5.92-34.75-8.92-52.85-8.92-2.66,0-5.36.07-8.03.2ZM458.75,263.66c15.03,6.79,28.97,15.7,41.49,26.49,12.39-10.56,26.18-19.28,41.02-25.92-10.67-18.05-24.6-33.64-41.42-46.35-16.62,12.57-30.43,27.96-41.08,45.78Z"/>
      <path class="st1" d="M498.86,494.5c-3.08-2.2-6.16-4.59-9.44-7.3-5.08-4.23-9.89-8.72-14.32-13.37-5.91.61-11.87.92-17.75.92h-1.87c-4.09-.05-8.09-.23-11.91-.55l-.82-.07-.2-.79c-1.02-4.01-1.87-7.93-2.53-11.65-1.17-6.41-1.99-12.95-2.43-19.46-5.43-3.67-10.66-7.66-15.58-11.89-2.89-2.45-5.77-5.09-8.78-8.06l-.58-.57.35-.74c1.65-3.47,3.46-6.93,5.54-10.56,3.19-5.64,6.78-11.18,10.66-16.48-1.8-6.32-3.26-12.76-4.32-19.16-.66-3.85-1.19-7.82-1.56-11.8l-.08-.82.75-.34c3.52-1.6,7.13-3.09,11.03-4.55,6.16-2.29,12.55-4.26,19.01-5.85,2.63-5.86,5.66-11.67,9-17.28,2-3.39,4.17-6.78,6.44-10.05l.47-.67.79.22c3.92,1.09,7.75,2.32,11.38,3.64,6.17,2.2,12.21,4.76,17.95,7.6,5.8-2.82,11.86-5.34,18.04-7.5,3.74-1.32,7.57-2.52,11.38-3.56l.79-.22.46.67c2.25,3.28,4.4,6.68,6.39,10.11,3.32,5.66,6.31,11.49,8.89,17.35,6.28,1.59,12.55,3.56,18.63,5.84,3.72,1.4,7.42,2.95,11,4.59l.74.34-.08.82c-.4,4.08-.93,8.06-1.58,11.85-1.09,6.42-2.55,12.82-4.34,19.03,3.86,5.32,7.45,10.95,10.68,16.74,1.91,3.36,3.75,6.92,5.48,10.58l.35.74-.59.57c-2.87,2.79-5.85,5.49-8.86,8.02-5.02,4.25-10.29,8.2-15.66,11.76-.47,6.51-1.33,13.05-2.54,19.47-.7,3.76-1.58,7.67-2.6,11.6l-.21.8-.82.06c-3.9.29-7.91.45-11.92.46h-.93c-6.28,0-12.56-.35-18.67-1.05-4.45,4.63-9.31,9.1-14.45,13.3-3.05,2.53-6.23,4.96-9.46,7.23l-.67.47-.66-.47ZM477.92,459.93c.63.24,1.27.45,1.92.67.73.3,1.38.55,2.05.78l.28.1.2.22c1.96,2.17,4.11,4.38,6.38,6.58.5.52.97.99,1.46,1.41,3.07,2.94,6.2,5.7,9.36,8.26,3.2-2.55,6.37-5.3,9.43-8.17l1.47-1.41c2.1-2,4.2-4.13,6.42-6.53l.18-.2c.46-.5.93-1.02,1.38-1.54l.42-.49.63.1c.7.11,1.4.22,2.12.29h.08l.19.04c3.03.42,6.15.75,9.28.99l1.88.13c3.31.21,6.69.31,10.03.31.81,0,1.63,0,2.44-.02.81-4.02,1.48-8.16,1.98-12.32.08-.61.15-1.21.21-1.8l.03-.25c.33-3.03.57-6.11.71-9.17.05-.87.07-1.54.09-2.21l.02-.64.56-.45c.59-.34,1.18-.7,1.75-1.07l.09-.09.13-.06c2.61-1.63,5.22-3.4,7.77-5.25.53-.36,1.02-.71,1.52-1.1,3.26-2.38,6.53-4.98,9.76-7.77-2.03-3.72-4.21-7.36-6.48-10.82-.34-.54-.69-1.06-1.05-1.57-1.7-2.57-3.48-5.07-5.31-7.46l-.11-.15-.02-.04c-.54-.72-.99-1.3-1.45-1.86l-.41-.49.96-2.91c.96-3.11,1.8-6.08,2.52-9,.17-.61.31-1.2.43-1.8.94-3.91,1.75-7.98,2.41-12.14-3.71-1.45-7.62-2.81-11.65-4.04-.6-.18-1.2-.36-1.79-.53-2.87-.86-5.86-1.64-8.92-2.33l-3.11-.68-1.11-2.75.97-.66-1.06.44c-1.18-2.83-2.45-5.65-3.79-8.38-.3-.63-.56-1.15-.83-1.66-1.79-3.6-3.77-7.23-5.93-10.82-3.83,1.29-7.7,2.77-11.51,4.4-.58.24-1.14.47-1.69.73-2.76,1.19-5.54,2.51-8.29,3.93l-.12.06-.13.03c-.66.36-1.38.73-2.09,1.11l-.55.3-.55-.3c-.68-.38-1.37-.76-2.07-1.1l-.13-.03-.12-.09c-2.78-1.46-5.55-2.79-8.21-3.97-.59-.28-1.15-.53-1.72-.76-3.6-1.58-7.45-3.08-11.49-4.47-2.13,3.48-4.15,7.09-6,10.74-.22.4-.4.76-.58,1.13l-.3.6c-1.4,2.84-2.68,5.64-3.8,8.31l-.02.09-.07.12c-.31.73-.62,1.46-.91,2.19l-.23.58-.62.12c-.76.14-1.52.31-2.27.49l-.13.03h-.13c-2.87.65-5.86,1.4-8.87,2.26l-1.84.52c-3.97,1.18-7.98,2.55-11.92,4.06.64,4.12,1.44,8.23,2.39,12.22.1.47.21.9.31,1.34l.13.52c.75,3.03,1.6,6.06,2.53,9l.9,2.86-.38.47c-.45.56-.89,1.12-1.32,1.7l-.16.2c-1.82,2.36-3.58,4.79-5.36,7.43-.42.57-.77,1.11-1.12,1.68-2.27,3.41-4.44,6.98-6.48,10.65,3.08,2.71,6.32,5.34,9.66,7.84.51.38,1.01.76,1.53,1.12,2.58,1.89,5.17,3.66,7.73,5.29l.17.11c.59.4,1.2.77,1.81,1.13l.57.33v.66c0,.68.03,1.35.07,2.03v.12s-.01.18-.01.18c.14,3.1.36,6.17.67,9.2.06.69.13,1.37.22,2.05.47,4.21,1.11,8.34,1.89,12.31,1.24.03,2.47.04,3.7.04,2.95,0,5.9-.08,8.76-.25.7-.04,1.39-.07,2.08-.13,2.89-.19,5.86-.48,9.09-.9l.28-.04.27.1Z"/>
    </g>
  </g>
  <g>
    <g>
      <path class="st2" d="M1436.73,778.78l-6.4-33.74c-.78-4.23-1.9-7.55-3.34-9.87-1.4-2.27-3.58-4-6.46-5.14-2.93-1.16-7.08-1.75-12.33-1.75h-39.35v50.51h-12.25v-120.6h51.94c11.11,0,20.36,2.74,27.48,8.14,7.17,5.44,10.81,13.17,10.81,22.98,0,8.42-2.66,15.53-7.92,21.13-4.91,5.24-11.29,8.37-18.98,9.31,6.14.63,10.96,2.44,14.33,5.38,3.67,3.2,6.23,8.62,7.61,16.11l7.47,37.54h-12.62ZM1407.01,717.05c8.56,0,15.32-2.33,20.07-6.92,4.75-4.59,7.16-10.56,7.16-17.75s-2.4-12.72-7.14-16.79c-4.76-4.1-11.18-6.17-19.07-6.17h-39.18v47.64h38.15Z"/>
      <path class="st2" d="M1465.8,778.78v-89.2h11.74v89.2h-11.74ZM1471.67,675.21c-2.31,0-4.31-.83-5.96-2.47-1.64-1.64-2.47-3.65-2.47-5.96,0-2.43.83-4.46,2.48-6.05,1.64-1.58,3.64-2.38,5.95-2.38,2.42,0,4.46.8,6.04,2.39,1.58,1.58,2.39,3.62,2.39,6.04s-.83,4.31-2.47,5.96c-1.64,1.64-3.64,2.47-5.96,2.47Z"/>
      <polygon class="st2" points="1529.81 778.78 1493.33 689.58 1505.85 689.58 1521.69 729.19 1536 764.7 1550.13 729.19 1565.98 689.58 1578.67 689.58 1542.19 778.78 1529.81 778.78"/>
      <path class="st2" d="M1590.36,778.78v-89.2h11.74v89.2h-11.74ZM1596.23,675.21c-2.31,0-4.31-.83-5.95-2.47-1.64-1.64-2.47-3.64-2.47-5.96,0-2.43.83-4.46,2.48-6.05,1.64-1.58,3.64-2.38,5.95-2.38,2.42,0,4.46.8,6.04,2.39,1.58,1.58,2.39,3.62,2.39,6.04s-.83,4.31-2.47,5.96c-1.64,1.64-3.64,2.47-5.96,2.47Z"/>
      <path class="st2" d="M1687.44,778.78v-56.03c0-7.54-2.21-13.63-6.58-18.11-4.36-4.47-10.27-6.74-17.59-6.74-8.19,0-14.9,3.17-19.94,9.42-5.07,6.29-7.64,14.69-7.64,24.97v46.48h-11.91v-89.2h11.39l.49,24.33c1.46-7.8,4.96-14.24,10.41-19.15,5.83-5.25,12.99-7.91,21.29-7.91,9.45,0,17.22,3.04,23.11,9.05,5.88,6,8.87,13.94,8.87,23.61v59.27h-11.91Z"/>
      <path class="st2" d="M1720.88,778.78v-89.2h11.74v89.2h-11.74ZM1726.75,675.21c-2.31,0-4.31-.83-5.95-2.47-1.64-1.64-2.47-3.64-2.47-5.96,0-2.43.83-4.46,2.48-6.05,1.64-1.58,3.64-2.38,5.95-2.38,2.42,0,4.46.8,6.04,2.39,1.58,1.58,2.39,3.62,2.39,6.04s-.83,4.31-2.47,5.96c-1.64,1.64-3.64,2.47-5.96,2.47Z"/>
      <path class="st2" d="M1786.64,779.64c-6.07,0-10.87-.61-14.27-1.82-3.48-1.24-6.09-3.52-7.74-6.77-1.63-3.2-2.45-7.79-2.45-13.66v-58.46h-15.7v-9.35h15.7v-23.03h11.39l.34,23.03h24.92v9.35h-24.91v58.12c0,4.68,1.02,7.86,3.02,9.44,2.05,1.62,5.55,2.5,10.41,2.61,3.02,0,6.68-.17,10.86-.51l.63-.05v10.72l-.54.04c-2.96.23-6.88.34-11.65.34Z"/>
      <path class="st2" d="M1812.58,810.83c-1.58,0-3.26-.05-4.99-.14l-.55-.03v-11.08l.63.06c1.23.11,2.94.17,5.07.17,4.35,0,7.87-.48,10.47-1.42,2.56-.93,4.83-2.56,6.75-4.86,1.95-2.34,3.96-5.85,5.97-10.44l1.79-4.54-34.86-88.96h13.02l11.06,28.52,17.29,47.18c2.59-6.94,6.22-16.27,10.81-27.73l7.5-19.61,10.55-28.36h13.03l-35.81,89.69c-3.64,8.88-7.11,15.61-10.31,20-3.24,4.45-7.38,7.62-12.3,9.42-3.89,1.42-8.98,2.14-15.12,2.14Z"/>
    </g>
    <g>
      <path class="st2" d="M1690.05,611.78l-.14-.04c-3.8-.97-7.73-2.12-11.66-3.42-21.17-6.97-40.53-17.76-57.59-32.08-17.15,14.2-36.6,24.86-57.82,31.71-3.9,1.24-7.84,2.36-11.7,3.32l-.61.15-.54-.51-.08-.11c-2.34-3.26-4.61-6.66-6.74-10.1-11.76-18.99-19.68-39.71-23.53-61.58-22.24-.12-44.01-4.44-64.71-12.83-3.81-1.56-7.54-3.23-11.08-4.96l-.65-.31v-.72c.3-4.09.74-8.16,1.32-12.19,3.18-22.11,10.41-43.07,21.5-62.31-16.97-14.39-30.88-31.67-41.36-51.37-1.91-3.64-3.7-7.32-5.31-10.94l-.1-.22v-.71l.33-.35c2.93-2.98,5.88-5.81,8.78-8.41,16.61-14.9,35.62-26.32,56.5-33.97-3.77-21.96-3.33-44.14,1.3-65.93.93-4.28,1.89-8.13,2.93-11.77l.08-.27.49-.52.44-.06c4.12-.42,8.2-.69,12.12-.82,1.93-.07,3.87-.1,5.8-.1,20.34,0,40.3,3.49,59.34,10.37,11.21-19.26,25.78-35.99,43.34-49.72,3.2-2.49,6.5-4.89,9.82-7.15l.29-.2h.71l.31.2c3.38,2.3,6.68,4.71,9.82,7.17,17.73,13.88,32.43,30.8,43.69,50.3,18.92-6.78,38.71-10.21,58.84-10.21,2.33,0,4.67.05,7,.14,4.15.19,8.22.5,12.1.91l.39.04.52.49.1.33c1.06,3.78,2.02,7.76,2.86,11.83,4.48,21.83,4.77,44.01.86,65.91,20.83,7.79,39.77,19.35,56.28,34.35,2.91,2.66,5.84,5.5,8.71,8.46l.32.33v.72l-.1.25c-1.75,3.84-3.57,7.5-5.4,10.89-10.56,19.57-24.58,36.75-41.67,51.08,10.96,19.35,18.05,40.36,21.08,62.48.53,3.95.94,8.01,1.22,12.09l.04.54-.53.5-.18.1c-3.69,1.76-7.44,3.4-11.14,4.87-20.66,8.23-42.43,12.41-64.68,12.41,0,0-.04,0-.04,0-4.02,21.86-12.08,42.53-23.97,61.44-2.16,3.41-4.46,6.79-6.83,10.04l-.34.47h-.75ZM1630.88,567.07c16.06,13.17,34.27,22.98,54.16,29.17,11.31-17.31,19.12-36.52,23.15-56.98-16.25-1.29-32.22-4.89-47.51-10.69-8.05,14.17-18.06,27.11-29.8,38.5ZM1533.36,538.66c3.85,20.42,11.51,39.63,22.78,57.14,19.93-6.07,38.2-15.76,54.35-28.8-11.63-11.44-21.56-24.45-29.55-38.69-15.29,5.68-31.29,9.17-47.59,10.35ZM1587.81,511.97c1.6,3.43,3.34,6.78,5.16,9.97,7.44,13.26,16.77,25.37,27.73,36.02,11-10.52,20.41-22.57,27.99-35.83,1.81-3.13,3.57-6.47,5.24-9.93l.49-1.02,1.03.47c3.45,1.59,6.94,3.04,10.36,4.32,14.29,5.39,29.23,8.69,44.42,9.81,1.67-15.13,1.15-30.43-1.57-45.48-.63-3.62-1.43-7.3-2.36-10.95l-.28-1.1,1.09-.3c3.65-.99,7.27-2.12,10.74-3.35,14.41-5.04,27.97-12.1,40.32-21-8.41-12.66-18.63-24.03-30.38-33.82-2.86-2.4-5.85-4.72-8.88-6.9l-.92-.66.65-.93c2.1-3.01,4.16-6.2,6.1-9.47,7.81-13.1,13.67-27.23,17.42-42.01-14.56-4.25-29.62-6.41-44.77-6.41h-.73c-3.71.02-7.48.17-11.21.44l-1.13.08-.1-1.12c-.33-3.59-.81-7.24-1.45-11.13-2.5-15-7.11-29.52-13.7-43.18-13.93,6.14-26.85,14.23-38.42,24.04-3.04,2.57-5.76,5.05-8.31,7.56l-.81.8-.81-.8c-2.83-2.81-5.53-5.3-8.27-7.61-11.72-10.07-24.78-18.32-38.83-24.56-6.68,13.68-11.36,28.24-13.91,43.3-.62,3.63-1.12,7.37-1.48,11.13l-.11,1.13-1.13-.09c-3.73-.31-7.51-.48-11.22-.5h-1.47c-14.75,0-29.42,2.05-43.61,6.1,3.65,14.76,9.42,28.93,17.16,42.14,1.77,3.06,3.74,6.16,6.01,9.49l.64.94-.93.65c-2.96,2.08-5.96,4.38-8.91,6.84-11.8,9.68-22.1,20.98-30.64,33.62,12.31,9,25.83,16.16,40.21,21.29,3.46,1.25,7.05,2.39,10.69,3.41l1.09.3-.29,1.1c-.98,3.74-1.8,7.43-2.43,10.95-2.82,15.05-3.46,30.34-1.89,45.49,15.24-1.03,30.2-4.24,44.49-9.53,3.35-1.23,6.75-2.62,10.41-4.25l1.03-.46.48,1.02ZM1721.99,477.55c2.93,16.08,3.57,32.44,1.91,48.68,20.74-.23,40.99-4.41,60.2-12.43-2.47-20.6-8.8-40.32-18.83-58.55-13.33,9.46-27.88,16.96-43.28,22.3ZM1457.63,512.7c19.14,8.15,39.37,12.46,60.14,12.81-1.57-16.24-.82-32.6,2.23-48.66-15.38-5.44-29.88-13.04-43.14-22.61-10.14,18.1-16.6,37.75-19.23,58.45ZM1736.24,399.09c12.57,10.45,23.55,22.58,32.68,36.1,15.77-13.54,28.61-29.74,38.19-48.2-15.18-14.26-32.68-25.28-52.04-32.78-4.13,15.8-10.46,30.88-18.83,44.88ZM1435.48,385.73c9.46,18.55,22.19,34.85,37.87,48.47,9.2-13.43,20.27-25.49,32.93-35.87-8.3-14.09-14.54-29.23-18.55-45.04-19.41,7.38-36.98,18.29-52.25,32.44ZM1697.43,329.8c16.09,0,32.08,2.24,47.54,6.67,3.42-20.5,2.86-41.17-1.68-61.49-3.02-.17-6.08-.26-9.11-.26-17.89,0-35.52,2.94-52.42,8.75,6.99,14.68,11.85,30.25,14.47,46.32.4,0,.8,0,1.2,0ZM1500.05,274.17c-4.67,20.29-5.37,40.96-2.09,61.47,15.1-4.22,30.73-6.36,46.47-6.36.6,0,1.2,0,1.8,0,2.67-16.08,7.61-31.68,14.69-46.4-16.98-5.92-34.75-8.92-52.85-8.92-2.66,0-5.36.07-8.03.2ZM1580.11,275.92c15.03,6.79,28.97,15.7,41.49,26.49,12.39-10.56,26.18-19.28,41.02-25.92-10.67-18.05-24.6-33.64-41.42-46.35-16.62,12.57-30.43,27.96-41.08,45.78Z"/>
      <path class="st2" d="M1620.22,506.76c-3.08-2.2-6.16-4.59-9.44-7.3-5.08-4.23-9.89-8.72-14.32-13.37-5.91.61-11.87.92-17.75.92h-1.87c-4.09-.05-8.09-.23-11.91-.55l-.82-.07-.2-.79c-1.02-4.01-1.87-7.93-2.53-11.65-1.17-6.41-1.99-12.95-2.43-19.46-5.43-3.67-10.66-7.66-15.58-11.89-2.89-2.45-5.77-5.09-8.78-8.06l-.58-.57.35-.74c1.65-3.47,3.46-6.93,5.54-10.56,3.19-5.64,6.78-11.18,10.66-16.48-1.8-6.32-3.26-12.76-4.32-19.16-.66-3.85-1.19-7.82-1.56-11.8l-.08-.82.75-.34c3.52-1.6,7.13-3.09,11.03-4.55,6.16-2.29,12.55-4.26,19.01-5.85,2.63-5.86,5.66-11.67,9-17.28,2-3.39,4.17-6.78,6.44-10.05l.47-.67.79.22c3.92,1.09,7.75,2.32,11.38,3.64,6.17,2.2,12.21,4.76,17.95,7.6,5.8-2.82,11.86-5.34,18.04-7.5,3.74-1.32,7.57-2.52,11.38-3.56l.79-.22.46.67c2.25,3.28,4.4,6.68,6.39,10.11,3.32,5.66,6.31,11.49,8.89,17.35,6.28,1.59,12.55,3.56,18.63,5.84,3.72,1.4,7.42,2.95,11,4.59l.74.34-.08.82c-.4,4.08-.93,8.06-1.58,11.85-1.09,6.42-2.55,12.82-4.34,19.03,3.86,5.32,7.45,10.95,10.68,16.74,1.91,3.36,3.75,6.92,5.48,10.58l.35.74-.59.57c-2.87,2.79-5.85,5.49-8.86,8.02-5.02,4.25-10.29,8.2-15.66,11.76-.47,6.51-1.33,13.05-2.54,19.47-.7,3.76-1.58,7.67-2.6,11.6l-.21.8-.82.06c-3.9.29-7.91.45-11.92.46h-.93c-6.28,0-12.56-.35-18.67-1.05-4.45,4.63-9.31,9.1-14.45,13.3-3.05,2.53-6.23,4.96-9.46,7.23l-.67.47-.66-.47ZM1599.28,472.18c.63.24,1.27.45,1.92.67.73.3,1.38.55,2.05.78l.28.1.2.22c1.96,2.17,4.11,4.38,6.38,6.58.5.52.97.99,1.46,1.41,3.07,2.94,6.2,5.7,9.36,8.26,3.2-2.55,6.37-5.3,9.43-8.17l1.47-1.41c2.1-2,4.2-4.13,6.42-6.53l.18-.2c.46-.5.93-1.02,1.38-1.54l.42-.49.63.1c.7.11,1.4.22,2.12.29h.08l.19.04c3.03.42,6.15.75,9.28.99l1.88.13c3.31.21,6.69.31,10.03.31.81,0,1.63,0,2.44-.02.81-4.02,1.48-8.16,1.98-12.32.08-.61.15-1.21.21-1.8l.03-.25c.33-3.03.57-6.11.71-9.17.05-.87.07-1.54.09-2.21l.02-.64.56-.45c.59-.34,1.18-.7,1.75-1.07l.09-.09.13-.06c2.61-1.63,5.22-3.4,7.77-5.25.53-.36,1.02-.71,1.52-1.1,3.26-2.38,6.53-4.98,9.76-7.77-2.03-3.72-4.21-7.36-6.48-10.82-.34-.54-.69-1.06-1.05-1.57-1.7-2.57-3.48-5.07-5.31-7.46l-.11-.15-.02-.04c-.54-.72-.99-1.3-1.45-1.86l-.41-.49.96-2.91c.96-3.11,1.8-6.08,2.52-9,.17-.61.31-1.2.43-1.8.94-3.91,1.75-7.98,2.41-12.14-3.71-1.45-7.62-2.81-11.65-4.04-.6-.18-1.2-.36-1.79-.53-2.87-.86-5.86-1.64-8.92-2.33l-3.11-.68-1.11-2.75.97-.66-1.06.44c-1.18-2.83-2.45-5.65-3.79-8.38-.3-.63-.56-1.15-.83-1.66-1.79-3.6-3.77-7.23-5.93-10.82-3.83,1.29-7.7,2.77-11.51,4.4-.58.24-1.14.47-1.69.73-2.76,1.19-5.54,2.51-8.29,3.93l-.12.06-.13.03c-.66.36-1.38.73-2.09,1.11l-.55.3-.55-.3c-.68-.38-1.37-.76-2.07-1.1l-.13-.03-.12-.09c-2.78-1.46-5.55-2.79-8.21-3.97-.59-.28-1.15-.53-1.72-.76-3.6-1.58-7.45-3.08-11.49-4.47-2.13,3.48-4.15,7.09-6,10.74-.22.4-.4.76-.58,1.13l-.3.6c-1.4,2.84-2.68,5.64-3.8,8.31l-.02.09-.07.12c-.31.73-.62,1.46-.91,2.19l-.23.58-.62.12c-.76.14-1.52.31-2.27.49l-.13.03h-.13c-2.87.65-5.86,1.4-8.87,2.26l-1.84.52c-3.97,1.18-7.98,2.55-11.92,4.06.64,4.12,1.44,8.23,2.39,12.22.1.47.21.9.31,1.34l.13.52c.75,3.03,1.6,6.06,2.53,9l.9,2.86-.38.47c-.45.56-.89,1.12-1.32,1.7l-.16.2c-1.82,2.36-3.58,4.79-5.36,7.43-.42.57-.77,1.11-1.12,1.68-2.27,3.41-4.44,6.98-6.48,10.65,3.08,2.71,6.32,5.34,9.66,7.84.51.38,1.01.76,1.53,1.12,2.58,1.89,5.17,3.66,7.73,5.29l.17.11c.59.4,1.2.77,1.81,1.13l.57.33v.66c0,.68.03,1.35.07,2.03v.12s-.01.18-.01.18c.14,3.1.36,6.17.67,9.2.06.69.13,1.37.22,2.05.47,4.21,1.11,8.34,1.89,12.31,1.24.03,2.47.04,3.7.04,2.95,0,5.9-.08,8.76-.25.7-.04,1.39-.07,2.08-.13,2.89-.19,5.86-.48,9.09-.9l.28-.04.27.1Z"/>
    </g>
  </g>
  <g>
    <path class="st1" d="M617.31,1942.65l-.24-.06c-6.49-1.65-13.19-3.61-19.9-5.83-36.12-11.9-69.17-30.31-98.27-54.74-29.27,24.23-62.46,42.43-98.67,54.11-6.66,2.12-13.37,4.03-19.96,5.67l-1.04.26-.92-.87-.14-.18c-3.99-5.57-7.86-11.37-11.5-17.24-20.07-32.41-33.58-67.76-40.15-105.09-37.96-.21-75.1-7.57-110.42-21.89-6.51-2.67-12.87-5.51-18.92-8.46l-1.1-.54v-1.23c.51-6.98,1.26-13.92,2.26-20.8,5.43-37.73,17.77-73.5,36.69-106.34-28.95-24.56-52.69-54.04-70.57-87.66-3.27-6.21-6.32-12.49-9.06-18.67l-.17-.38v-1.22l.56-.6c4.99-5.09,10.03-9.92,14.98-14.35,28.35-25.42,60.79-44.92,96.42-57.96-6.43-37.47-5.69-75.32,2.21-112.51,1.59-7.31,3.23-13.88,5.01-20.09l.13-.46.83-.88.76-.11c7.04-.71,14-1.18,20.69-1.39,3.3-.11,6.6-.16,9.9-.16,34.71,0,68.77,5.95,101.26,17.69,19.12-32.87,44-61.41,73.95-84.85,5.45-4.24,11.09-8.34,16.76-12.2l.5-.34h1.21l.53.34c5.77,3.92,11.4,8.03,16.76,12.23,30.26,23.68,55.34,52.55,74.56,85.83,32.29-11.56,66.07-17.42,100.41-17.42,3.98,0,7.97.08,11.95.24,7.08.33,14.03.85,20.65,1.55l.66.07.88.83.18.56c1.8,6.45,3.45,13.24,4.88,20.18,7.65,37.26,8.15,75.09,1.47,112.48,35.55,13.3,67.86,33.02,96.05,58.62,4.97,4.53,9.96,9.39,14.86,14.44l.55.57v1.22l-.18.42c-2.99,6.55-6.1,12.81-9.22,18.59-18.02,33.4-41.94,62.72-71.11,87.16,18.7,33.01,30.8,68.88,35.97,106.62.91,6.74,1.61,13.67,2.09,20.62l.06.93-.9.85-.31.16c-6.29,3.01-12.69,5.8-19.01,8.3-35.26,14.05-72.4,21.17-110.38,21.17,0,0-.07,0-.07,0-6.86,37.31-20.61,72.57-40.9,104.85-3.69,5.83-7.62,11.59-11.66,17.14l-.59.81h-1.27ZM516.34,1866.36c27.41,22.48,58.49,39.21,92.42,49.78,19.29-29.55,32.63-62.31,39.51-97.24-27.72-2.21-54.98-8.34-81.08-18.24-13.73,24.19-30.82,46.27-50.85,65.7ZM349.93,1817.88c6.57,34.84,19.65,67.63,38.88,97.51,34.01-10.36,65.2-26.89,92.75-49.15-19.84-19.53-36.79-41.72-50.42-66.03-26.1,9.7-53.4,15.64-81.2,17.66ZM442.84,1772.33c2.73,5.85,5.69,11.57,8.8,17.01,12.7,22.62,28.61,43.29,47.32,61.47,18.77-17.94,34.84-38.51,47.77-61.15,3.09-5.34,6.1-11.04,8.94-16.94l.84-1.74,1.75.81c5.89,2.71,11.84,5.19,17.69,7.37,24.39,9.2,49.88,14.83,75.8,16.75,2.86-25.83,1.95-51.93-2.68-77.61-1.08-6.18-2.44-12.46-4.03-18.69l-.48-1.87,1.87-.51c6.23-1.69,12.4-3.62,18.33-5.72,24.59-8.6,47.73-20.65,68.81-35.84-14.36-21.6-31.79-41.01-51.85-57.72-4.88-4.1-9.98-8.06-15.16-11.78l-1.57-1.13,1.11-1.59c3.59-5.14,7.09-10.58,10.4-16.15,13.32-22.35,23.32-46.46,29.73-71.69-24.85-7.26-50.54-10.94-76.4-10.94h-1.25c-6.33.03-12.76.29-19.13.75l-1.92.14-.18-1.92c-.57-6.13-1.37-12.35-2.47-19-4.27-25.59-12.13-50.37-23.37-73.69-23.77,10.48-45.82,24.28-65.56,41.03-5.19,4.39-9.83,8.61-14.18,12.9l-1.38,1.36-1.38-1.37c-4.82-4.79-9.44-9.04-14.11-12.99-20.01-17.18-42.29-31.27-66.27-41.91-11.4,23.35-19.38,48.2-23.74,73.89-1.05,6.19-1.91,12.58-2.53,19l-.19,1.92-1.93-.16c-6.37-.53-12.81-.81-19.14-.84h-2.51c-25.17-.01-50.2,3.5-74.43,10.42,6.23,25.18,16.08,49.37,29.28,71.91,3.02,5.22,6.38,10.51,10.25,16.19l1.09,1.6-1.58,1.11c-5.06,3.55-10.17,7.48-15.2,11.67-20.13,16.52-37.71,35.81-52.28,57.37,21.01,15.36,44.09,27.58,68.62,36.33,5.9,2.13,12.04,4.09,18.25,5.81l1.86.52-.49,1.87c-1.67,6.39-3.07,12.67-4.15,18.68-4.82,25.68-5.9,51.78-3.23,77.62,26-1.76,51.53-7.23,75.91-16.26,5.72-2.09,11.52-4.47,17.76-7.25l1.76-.79.82,1.75ZM671.82,1713.59c5,27.44,6.09,55.36,3.25,83.06,35.4-.4,69.94-7.53,102.74-21.21-4.21-35.15-15.02-68.81-32.13-99.92-22.75,16.14-47.58,28.93-73.86,38.06ZM220.69,1773.58c32.67,13.9,67.18,21.26,102.63,21.87-2.68-27.71-1.41-55.62,3.8-83.03-26.24-9.28-50.99-22.25-73.62-38.58-17.3,30.89-28.33,64.43-32.81,99.74ZM696.13,1579.71c21.45,17.83,40.2,38.54,55.77,61.6,26.92-23.1,48.83-50.76,65.17-82.26-25.9-24.34-55.77-43.14-88.8-55.93-7.04,26.96-17.84,52.7-32.14,76.59ZM182.9,1556.9c16.14,31.66,37.87,59.47,64.62,82.71,15.7-22.92,34.59-43.5,56.2-61.21-14.17-24.04-24.81-49.88-31.65-76.86-33.12,12.59-63.11,31.2-89.17,55.36ZM629.9,1461.47c27.46,0,54.74,3.83,81.12,11.39,5.84-34.98,4.88-70.26-2.87-104.93-5.16-.29-10.38-.44-15.55-.44-30.53,0-60.62,5.02-89.46,14.94,11.92,25.05,20.22,51.62,24.7,79.05.68,0,1.37,0,2.05,0ZM293.09,1366.52c-7.97,34.62-9.16,69.89-3.56,104.89,25.77-7.2,52.44-10.85,79.3-10.85,1.02,0,2.05,0,3.07.02,4.56-27.44,12.99-54.06,25.07-79.18-28.98-10.1-59.31-15.22-90.19-15.22-4.54,0-9.15.11-13.7.34ZM429.7,1369.51c25.64,11.59,49.44,26.79,70.79,45.21,21.14-18.02,44.67-32.9,70-44.24-18.22-30.81-41.98-57.41-70.68-79.1-28.36,21.44-51.93,47.71-70.11,78.13Z"/>
    <path class="st1" d="M498.15,1763.43c-5.25-3.75-10.52-7.83-16.1-12.46-8.66-7.21-16.88-14.88-24.44-22.81-10.08,1.04-20.26,1.56-30.29,1.56l-3.19-.02c-6.97-.06-13.81-.37-20.32-.92l-1.39-.11-.34-1.35c-1.74-6.84-3.19-13.53-4.31-19.88-2-10.93-3.4-22.11-4.15-33.21-9.26-6.26-18.2-13.08-26.58-20.28-4.94-4.18-9.84-8.68-14.99-13.75l-.99-.98.6-1.26c2.81-5.93,5.9-11.82,9.45-18.01,5.45-9.63,11.57-19.09,18.19-28.12-3.08-10.78-5.56-21.77-7.37-32.69-1.13-6.57-2.03-13.35-2.66-20.13l-.13-1.39,1.27-.58c6-2.73,12.16-5.27,18.82-7.76,10.52-3.91,21.42-7.26,32.44-9.98,4.49-10.01,9.66-19.92,15.36-29.48,3.42-5.79,7.12-11.56,11-17.14l.8-1.15,1.34.38c6.69,1.86,13.22,3.95,19.41,6.22,10.52,3.76,20.83,8.12,30.62,12.97,9.89-4.81,20.25-9.11,30.79-12.79,6.39-2.26,12.92-4.3,19.42-6.08l1.35-.37.79,1.15c3.83,5.59,7.5,11.39,10.91,17.25,5.66,9.66,10.76,19.61,15.17,29.6,10.71,2.72,21.41,6.07,31.8,9.97,6.35,2.39,12.66,5.03,18.76,7.83l1.27.58-.14,1.39c-.68,6.96-1.59,13.76-2.7,20.22-1.86,10.96-4.35,21.88-7.4,32.47,6.59,9.08,12.72,18.68,18.23,28.57,3.25,5.73,6.4,11.81,9.35,18.06l.6,1.27-1,.98c-4.9,4.77-9.98,9.38-15.12,13.69-8.57,7.25-17.56,13.99-26.73,20.06-.81,11.1-2.27,22.27-4.34,33.22-1.2,6.42-2.69,13.08-4.44,19.8l-.35,1.36-1.4.1c-6.65.49-13.5.76-20.34.79h-1.59c-10.71,0-21.43-.6-31.86-1.79-7.59,7.9-15.88,15.53-24.65,22.69-5.21,4.31-10.64,8.47-16.14,12.33l-1.14.8-1.13-.81ZM462.42,1704.43c1.08.4,2.16.77,3.27,1.14,1.25.5,2.36.94,3.49,1.33l.47.16.34.37c3.34,3.7,7.01,7.48,10.89,11.24.85.88,1.66,1.69,2.49,2.41,5.23,5.02,10.58,9.73,15.98,14.09,5.46-4.35,10.86-9.04,16.09-13.94l2.51-2.41c3.59-3.41,7.16-7.05,10.96-11.15l.3-.34c.78-.84,1.58-1.74,2.35-2.63l.71-.83,1.08.17c1.19.18,2.39.37,3.61.49h.13l.32.07c5.16.71,10.49,1.28,15.84,1.69l3.21.22c5.65.35,11.41.53,17.12.53,1.39,0,2.78-.01,4.17-.03,1.39-6.87,2.52-13.93,3.37-21.03.14-1.04.25-2.07.36-3.08l.05-.43c.56-5.17.97-10.43,1.22-15.65.09-1.49.12-2.63.15-3.77l.03-1.1.96-.76c1.01-.58,2.01-1.19,2.99-1.83l.15-.15.23-.09c4.45-2.78,8.91-5.8,13.26-8.96.9-.61,1.74-1.21,2.59-1.88,5.57-4.06,11.15-8.5,16.65-13.26-3.46-6.36-7.18-12.56-11.06-18.46-.57-.92-1.18-1.8-1.79-2.68-2.91-4.39-5.94-8.65-9.06-12.73l-.19-.25-.03-.07c-.91-1.22-1.68-2.21-2.48-3.18l-.69-.84,1.63-4.97c1.65-5.31,3.07-10.37,4.3-15.37.28-1.05.53-2.05.74-3.08,1.6-6.67,2.98-13.62,4.11-20.71-6.32-2.48-13.01-4.8-19.89-6.89-1.02-.31-2.04-.62-3.06-.9-4.9-1.46-10-2.8-15.22-3.98l-5.31-1.16-1.89-4.7,1.66-1.12-1.81.75c-2.01-4.83-4.18-9.65-6.46-14.31-.52-1.07-.95-1.97-1.42-2.84-3.05-6.14-6.44-12.33-10.12-18.46-6.54,2.21-13.14,4.73-19.64,7.5-1,.41-1.94.8-2.88,1.25-4.71,2.03-9.45,4.28-14.15,6.71l-.21.11-.23.06c-1.13.62-2.35,1.24-3.56,1.9l-.94.51-.94-.52c-1.17-.64-2.33-1.29-3.53-1.87l-.22-.06-.21-.16c-4.75-2.49-9.47-4.77-14.02-6.77-1-.48-1.97-.91-2.94-1.3-6.14-2.69-12.71-5.25-19.6-7.64-3.64,5.94-7.08,12.1-10.24,18.32-.37.68-.68,1.3-1,1.92l-.52,1.02c-2.39,4.84-4.58,9.62-6.48,14.18l-.04.16-.12.2c-.53,1.25-1.06,2.49-1.56,3.74l-.4,1-1.06.2c-1.29.25-2.59.53-3.88.83l-.22.05h-.23c-4.9,1.11-10,2.39-15.14,3.86l-3.14.89c-6.78,2.02-13.63,4.35-20.34,6.92,1.08,7.03,2.45,14.04,4.08,20.85.17.8.35,1.54.53,2.28l.22.89c1.28,5.17,2.73,10.34,4.31,15.36l1.54,4.88-.66.81c-.77.96-1.51,1.91-2.25,2.9l-.27.34c-3.11,4.03-6.1,8.17-9.15,12.68-.71.97-1.31,1.9-1.91,2.87-3.88,5.82-7.58,11.91-11.05,18.17,5.25,4.62,10.79,9.12,16.48,13.37.86.65,1.72,1.29,2.62,1.91,4.41,3.22,8.83,6.25,13.19,9.02l.29.18c1.01.67,2.05,1.31,3.08,1.93l.97.57v1.12c0,1.16.06,2.3.12,3.46v.21s-.02.3-.02.3c.24,5.3.62,10.53,1.15,15.69.1,1.17.22,2.34.37,3.5.81,7.18,1.89,14.23,3.23,21,2.11.05,4.21.07,6.31.07,5.04,0,10.07-.14,14.94-.43,1.19-.06,2.37-.13,3.55-.22,4.94-.33,10-.83,15.52-1.53l.48-.06.45.17Z"/>
  </g>
  <g>
    <g>
      <path class="st2" d="M-696.19,576.81l-6.52-34.39c-.79-4.31-1.94-7.7-3.4-10.06-1.43-2.31-3.65-4.08-6.58-5.24-2.99-1.18-7.21-1.78-12.56-1.78h-40.1v51.47h-12.48v-122.9h52.93c11.32,0,20.75,2.79,28,8.29,7.31,5.54,11.01,13.42,11.01,23.42,0,8.58-2.72,15.82-8.07,21.53-5.01,5.34-11.51,8.53-19.34,9.49,6.26.64,11.17,2.48,14.6,5.48,3.74,3.26,6.35,8.79,7.76,16.42l7.62,38.26h-12.86ZM-726.48,513.9c8.73,0,15.61-2.37,20.46-7.05,4.84-4.67,7.3-10.76,7.3-18.09s-2.45-12.96-7.27-17.11c-4.85-4.17-11.39-6.29-19.44-6.29h-39.92v48.55h38.88Z"/>
      <path class="st2" d="M-666.56,576.81v-90.9h11.96v90.9h-11.96ZM-660.58,471.26c-2.35,0-4.4-.85-6.07-2.52-1.67-1.67-2.52-3.72-2.52-6.07,0-2.47.85-4.55,2.53-6.16,1.67-1.61,3.71-2.43,6.06-2.43,2.47,0,4.54.82,6.16,2.43,1.61,1.61,2.43,3.69,2.43,6.16s-.85,4.4-2.52,6.07c-1.67,1.67-3.71,2.52-6.07,2.52Z"/>
      <polygon class="st2" points="-601.34 576.81 -638.51 485.9 -625.75 485.9 -609.61 526.27 -595.03 562.45 -580.62 526.27 -564.48 485.9 -551.55 485.9 -588.72 576.81 -601.34 576.81"/>
      <path class="st2" d="M-539.63,576.81v-90.9h11.96v90.9h-11.96ZM-533.65,471.26c-2.35,0-4.4-.85-6.07-2.52-1.67-1.67-2.52-3.71-2.52-6.07,0-2.47.85-4.55,2.53-6.16,1.67-1.61,3.71-2.43,6.06-2.43,2.47,0,4.54.82,6.16,2.43,1.61,1.61,2.43,3.69,2.43,6.16s-.85,4.4-2.52,6.07c-1.67,1.67-3.71,2.52-6.07,2.52Z"/>
      <path class="st2" d="M-440.7,576.81v-57.1c0-7.69-2.25-13.89-6.7-18.45-4.44-4.55-10.47-6.86-17.92-6.86-8.35,0-15.19,3.23-20.32,9.6-5.16,6.41-7.78,14.97-7.78,25.45v47.36h-12.14v-90.9h11.6l.5,24.8c1.49-7.95,5.05-14.51,10.61-19.52,5.94-5.35,13.24-8.06,21.7-8.06,9.63,0,17.55,3.1,23.55,9.22,6,6.11,9.04,14.21,9.04,24.06v60.41h-12.14Z"/>
      <path class="st2" d="M-406.62,576.81v-90.9h11.96v90.9h-11.96ZM-400.64,471.26c-2.35,0-4.4-.85-6.07-2.52-1.67-1.67-2.52-3.71-2.52-6.07,0-2.47.85-4.55,2.53-6.16,1.67-1.61,3.71-2.43,6.06-2.43,2.47,0,4.54.82,6.16,2.43,1.61,1.61,2.43,3.69,2.43,6.16s-.85,4.4-2.52,6.07c-1.67,1.67-3.71,2.52-6.07,2.52Z"/>
      <path class="st2" d="M-339.61,577.67c-6.18,0-11.08-.63-14.54-1.86-3.55-1.26-6.2-3.58-7.89-6.9-1.66-3.26-2.5-7.94-2.5-13.92v-59.57h-16v-9.53h16v-23.47h11.6l.35,23.47h25.4v9.53h-25.39v59.22c0,4.77,1.04,8.01,3.08,9.62,2.09,1.65,5.66,2.54,10.6,2.66,3.08,0,6.81-.17,11.07-.52l.64-.05v10.92l-.55.04c-3.01.23-7.01.35-11.87.35Z"/>
      <path class="st2" d="M-313.17,609.46c-1.61,0-3.32-.05-5.08-.14l-.56-.03v-11.29l.64.06c1.25.11,2.99.17,5.16.17,4.43,0,8.02-.49,10.67-1.44,2.61-.94,4.93-2.61,6.88-4.95,1.98-2.38,4.03-5.96,6.09-10.64l1.82-4.63-35.53-90.66h13.27l11.27,29.07,17.62,48.08c2.64-7.08,6.34-16.58,11.01-28.26l7.65-19.99,10.75-28.9h13.28l-36.49,91.4c-3.71,9.05-7.25,15.91-10.5,20.39-3.3,4.54-7.52,7.77-12.53,9.6-3.96,1.45-9.15,2.18-15.41,2.18Z"/>
    </g>
    <g>
      <path class="st1" d="M-877.65,614.51l-.07-.02c-1.95-.5-3.97-1.09-5.99-1.76-10.87-3.58-20.82-9.13-29.58-16.48-8.81,7.29-18.8,12.77-29.7,16.29-2,.64-4.03,1.21-6.01,1.71l-.31.08-.28-.26-.04-.06c-1.2-1.68-2.37-3.42-3.46-5.19-6.04-9.76-10.11-20.4-12.09-31.64-11.43-.06-22.61-2.28-33.24-6.59-1.96-.8-3.87-1.66-5.69-2.55l-.33-.16v-.37c.15-2.1.38-4.19.68-6.26,1.63-11.36,5.35-22.12,11.04-32.01-8.72-7.39-15.86-16.27-21.24-26.39-.98-1.87-1.9-3.76-2.73-5.62l-.05-.11v-.37l.17-.18c1.5-1.53,3.02-2.99,4.51-4.32,8.53-7.65,18.3-13.52,29.03-17.45-1.94-11.28-1.71-22.67.67-33.87.48-2.2.97-4.18,1.51-6.05l.04-.14.25-.27.23-.03c2.12-.21,4.21-.35,6.23-.42.99-.03,1.99-.05,2.98-.05,10.45,0,20.7,1.79,30.48,5.33,5.76-9.89,13.25-18.49,22.26-25.54,1.64-1.28,3.34-2.51,5.04-3.67l.15-.1h.36l.16.1c1.74,1.18,3.43,2.42,5.04,3.68,9.11,7.13,16.66,15.82,22.44,25.84,9.72-3.48,19.89-5.24,30.23-5.24,1.2,0,2.4.02,3.6.07,2.13.1,4.22.26,6.22.47l.2.02.26.25.05.17c.54,1.94,1.04,3.99,1.47,6.08,2.3,11.22,2.45,22.61.44,33.86,10.7,4,20.43,9.94,28.91,17.65,1.5,1.36,3,2.83,4.47,4.35l.17.17v.37l-.05.13c-.9,1.97-1.84,3.85-2.77,5.6-5.43,10.05-12.63,18.88-21.4,26.24,5.63,9.94,9.27,20.73,10.83,32.09.27,2.03.48,4.12.63,6.21l.02.28-.27.25-.09.05c-1.89.9-3.82,1.75-5.72,2.5-10.61,4.23-21.79,6.37-33.23,6.37,0,0-.02,0-.02,0-2.06,11.23-6.21,21.85-12.31,31.56-1.11,1.75-2.29,3.49-3.51,5.16l-.18.24h-.38ZM-908.04,591.54c8.25,6.77,17.61,11.8,27.82,14.99,5.81-8.89,9.82-18.76,11.89-29.27-8.35-.66-16.55-2.51-24.41-5.49-4.13,7.28-9.28,13.93-15.31,19.78ZM-958.14,576.94c1.98,10.49,5.91,20.36,11.7,29.35,10.24-3.12,19.63-8.09,27.92-14.79-5.97-5.88-11.08-12.56-15.18-19.88-7.86,2.92-16.07,4.71-24.44,5.32ZM-930.17,563.24c.82,1.76,1.71,3.48,2.65,5.12,3.82,6.81,8.61,13.03,14.24,18.5,5.65-5.4,10.49-11.59,14.38-18.41.93-1.61,1.84-3.32,2.69-5.1l.25-.52.53.24c1.77.82,3.56,1.56,5.32,2.22,7.34,2.77,15.01,4.46,22.82,5.04.86-7.77.59-15.63-.81-23.36-.33-1.86-.73-3.75-1.21-5.62l-.14-.56.56-.15c1.88-.51,3.73-1.09,5.52-1.72,7.4-2.59,14.37-6.22,20.71-10.79-4.32-6.5-9.57-12.34-15.61-17.38-1.47-1.23-3-2.43-4.56-3.55l-.47-.34.33-.48c1.08-1.55,2.13-3.18,3.13-4.86,4.01-6.73,7.02-13.99,8.95-21.58-7.48-2.19-15.21-3.29-23-3.29h-.38c-1.9.01-3.84.09-5.76.23l-.58.04-.05-.58c-.17-1.85-.41-3.72-.74-5.72-1.28-7.7-3.65-15.16-7.03-22.18-7.15,3.16-13.79,7.31-19.74,12.35-1.56,1.32-2.96,2.59-4.27,3.88l-.42.41-.42-.41c-1.45-1.44-2.84-2.72-4.25-3.91-6.02-5.17-12.73-9.41-19.95-12.62-3.43,7.03-5.83,14.51-7.15,22.24-.32,1.86-.57,3.79-.76,5.72l-.06.58-.58-.05c-1.92-.16-3.86-.24-5.76-.25h-.75c-7.58,0-15.11,1.05-22.4,3.14,1.88,7.58,4.84,14.86,8.81,21.65.91,1.57,1.92,3.16,3.09,4.87l.33.48-.48.34c-1.52,1.07-3.06,2.25-4.58,3.51-6.06,4.97-11.35,10.78-15.74,17.27,6.32,4.62,13.27,8.3,20.66,10.94,1.78.64,3.62,1.23,5.49,1.75l.56.16-.15.56c-.5,1.92-.92,3.82-1.25,5.62-1.45,7.73-1.78,15.59-.97,23.37,7.83-.53,15.51-2.18,22.85-4.89,1.72-.63,3.47-1.34,5.35-2.18l.53-.24.25.53ZM-861.24,545.55c1.5,8.26,1.83,16.67.98,25,10.66-.12,21.05-2.27,30.93-6.38-1.27-10.58-4.52-20.71-9.67-30.08-6.85,4.86-14.32,8.71-22.23,11.46ZM-997.04,563.61c9.83,4.19,20.22,6.4,30.89,6.58-.81-8.34-.42-16.74,1.14-24.99-7.9-2.79-15.35-6.7-22.16-11.61-5.21,9.3-8.53,19.39-9.88,30.02ZM-853.92,505.25c6.46,5.37,12.1,11.6,16.79,18.54,8.1-6.95,14.7-15.28,19.62-24.76-7.8-7.33-16.79-12.99-26.73-16.84-2.12,8.11-5.37,15.86-9.67,23.05ZM-1008.41,498.38c4.86,9.53,11.4,17.9,19.45,24.9,4.73-6.9,10.41-13.09,16.92-18.43-4.26-7.24-7.47-15.01-9.53-23.14-9.97,3.79-19,9.39-26.84,16.66ZM-873.86,469.66c8.26,0,16.48,1.15,24.42,3.43,1.76-10.53,1.47-21.15-.86-31.59-1.55-.09-3.13-.13-4.68-.13-9.19,0-18.25,1.51-26.93,4.5,3.59,7.54,6.09,15.54,7.43,23.8.21,0,.41,0,.62,0ZM-975.24,441.08c-2.4,10.42-2.76,21.04-1.07,31.57,7.76-2.17,15.79-3.27,23.87-3.27.31,0,.62,0,.92,0,1.37-8.26,3.91-16.27,7.55-23.83-8.72-3.04-17.85-4.58-27.15-4.58-1.37,0-2.75.03-4.12.1ZM-934.12,441.98c7.72,3.49,14.88,8.06,21.31,13.61,6.36-5.43,13.45-9.9,21.07-13.32-5.48-9.27-12.64-17.28-21.28-23.81-8.54,6.45-15.63,14.36-21.1,23.52Z"/>
      <path class="st1" d="M-913.52,560.55c-1.58-1.13-3.17-2.36-4.85-3.75-2.61-2.17-5.08-4.48-7.36-6.87-3.03.31-6.1.47-9.12.47h-.96c-2.1-.02-4.16-.12-6.12-.28l-.42-.03-.1-.41c-.52-2.06-.96-4.07-1.3-5.99-.6-3.29-1.02-6.65-1.25-10-2.79-1.88-5.48-3.94-8-6.11-1.49-1.26-2.96-2.61-4.51-4.14l-.3-.29.18-.38c.85-1.78,1.78-3.56,2.84-5.42,1.64-2.9,3.48-5.75,5.47-8.46-.93-3.24-1.67-6.55-2.22-9.84-.34-1.98-.61-4.02-.8-6.06l-.04-.42.38-.17c1.81-.82,3.66-1.58,5.66-2.34,3.17-1.18,6.45-2.19,9.76-3,1.35-3.01,2.91-6,4.62-8.87,1.03-1.74,2.14-3.48,3.31-5.16l.24-.34.4.11c2.01.56,3.98,1.19,5.84,1.87,3.17,1.13,6.27,2.44,9.22,3.9,2.98-1.45,6.09-2.74,9.27-3.85,1.92-.68,3.89-1.3,5.85-1.83l.41-.11.24.35c1.15,1.68,2.26,3.43,3.28,5.19,1.7,2.91,3.24,5.9,4.57,8.91,3.23.82,6.44,1.83,9.57,3,1.91.72,3.81,1.51,5.65,2.36l.38.18-.04.42c-.2,2.09-.48,4.14-.81,6.09-.56,3.3-1.31,6.59-2.23,9.77,1.98,2.73,3.83,5.62,5.49,8.6.98,1.72,1.93,3.55,2.81,5.44l.18.38-.3.29c-1.47,1.44-3.01,2.82-4.55,4.12-2.58,2.18-5.29,4.21-8.05,6.04-.24,3.34-.68,6.7-1.31,10-.36,1.93-.81,3.94-1.34,5.96l-.11.41-.42.03c-2,.15-4.06.23-6.12.24h-.48c-3.22,0-6.45-.18-9.59-.54-2.29,2.38-4.78,4.67-7.42,6.83-1.57,1.3-3.2,2.55-4.86,3.71l-.34.24-.34-.24ZM-924.27,542.8c.33.12.65.23.99.34.38.15.71.28,1.05.4l.14.05.1.11c1.01,1.11,2.11,2.25,3.28,3.38.26.27.5.51.75.72,1.58,1.51,3.18,2.93,4.81,4.24,1.64-1.31,3.27-2.72,4.84-4.2l.75-.73c1.08-1.03,2.16-2.12,3.3-3.36l.09-.1c.24-.25.48-.52.71-.79l.21-.25.32.05c.36.06.72.11,1.09.15h.04l.1.02c1.55.21,3.16.38,4.77.51l.97.07c1.7.11,3.43.16,5.15.16.42,0,.84,0,1.25,0,.42-2.07.76-4.19,1.01-6.33.04-.31.08-.62.11-.93v-.13c.18-1.56.31-3.14.38-4.71.03-.45.04-.79.04-1.14v-.33s.3-.23.3-.23c.3-.17.61-.36.9-.55l.05-.04.07-.03c1.34-.84,2.68-1.74,3.99-2.7.27-.18.52-.37.78-.57,1.68-1.22,3.36-2.56,5.01-3.99-1.04-1.91-2.16-3.78-3.33-5.56-.17-.28-.36-.54-.54-.81-.87-1.32-1.79-2.6-2.73-3.83l-.06-.08v-.02c-.28-.37-.51-.67-.75-.96l-.21-.25.49-1.5c.5-1.6.92-3.12,1.29-4.63.09-.31.16-.62.22-.93.48-2.01.9-4.1,1.24-6.23-1.9-.75-3.92-1.44-5.99-2.07-.31-.09-.61-.19-.92-.27-1.47-.44-3.01-.84-4.58-1.2l-1.6-.35-.57-1.41.5-.34-.55.23c-.6-1.46-1.26-2.9-1.95-4.31-.16-.32-.29-.59-.43-.85-.92-1.85-1.94-3.71-3.05-5.56-1.97.66-3.96,1.42-5.91,2.26-.3.12-.58.24-.87.38-1.42.61-2.84,1.29-4.26,2.02l-.06.03-.07.02c-.34.19-.71.37-1.07.57l-.28.15-.28-.16c-.35-.19-.7-.39-1.06-.56l-.07-.02-.06-.05c-1.43-.75-2.85-1.44-4.22-2.04-.3-.15-.59-.27-.88-.39-1.85-.81-3.83-1.58-5.9-2.3-1.1,1.79-2.13,3.64-3.08,5.52-.11.2-.21.39-.3.58l-.16.31c-.72,1.46-1.38,2.9-1.95,4.27v.05s-.05.06-.05.06c-.16.37-.32.75-.47,1.13l-.12.3-.32.06c-.39.07-.78.16-1.17.25l-.07.02h-.07c-1.48.33-3.01.72-4.56,1.16l-.94.27c-2.04.61-4.1,1.31-6.12,2.08.33,2.12.74,4.23,1.23,6.28.05.24.11.46.16.69l.07.27c.38,1.56.82,3.11,1.3,4.62l.46,1.47-.2.24c-.23.29-.46.58-.68.87l-.08.1c-.94,1.21-1.84,2.46-2.75,3.82-.21.29-.39.57-.58.86-1.17,1.75-2.28,3.59-3.33,5.47,1.58,1.39,3.25,2.74,4.96,4.02.26.19.52.39.79.58,1.33.97,2.66,1.88,3.97,2.72l.09.05c.3.2.62.4.93.58l.29.17v.34c0,.35.02.69.04,1.04v.06s0,.09,0,.09c.07,1.59.19,3.17.35,4.72.03.35.07.7.11,1.05.24,2.16.57,4.28.97,6.32.63.01,1.27.02,1.9.02,1.52,0,3.03-.04,4.5-.13.36-.02.71-.04,1.07-.07,1.49-.1,3.01-.25,4.67-.46l.14-.02.14.05Z"/>
    </g>
  </g>
</svg>